<svg xmlns="http://www.w3.org/2000/svg" viewBox="0 0 119 44.3">
  <title>Alight logo registered trademark</title>
  <path d="M11.9,26.5c-3.6,0-6.1-2.6-6.1-6.4a6.1,6.1,0,0,1,6.1-6.4c3.5,0,6,2.7,6,6.4s-2.5,6.4-6,6.4ZM11.8,8.6C5,8.6,0,13.4,0,20.1S4.6,31.7,10.9,31.7a11.2,11.2,0,0,0,7-2.4v2h5.7V20.1c0-6.7-4.9-11.5-11.8-11.5Z" transform="translate(0 -0.1)" fill="#fff200"/>
  <path d="M32.8,25.3a2.8,2.8,0,0,1-.7-2.2V.4H26.3V23.2a8.5,8.5,0,0,0,2.6,6.6,8,8,0,0,0,5.3,1.9h2.4V25.9H35.3a3.4,3.4,0,0,1-2.5-.7" transform="translate(0 -0.1)" fill="#fff200"/>
  <g>
    <path d="M42.4.1a3.3,3.3,0,0,0-3.3,3.3,3.3,3.3,0,0,0,6.5,0A3.3,3.3,0,0,0,42.4.1" transform="translate(0 -0.1)" fill="#fff200"/>
    <path d="M39.5,31.3h5.7V9H39.5" transform="translate(0 -0.1)" fill="#fff200"/>
  </g>
  <g>
    <path d="M60,8.9c-6.6,0-11.5,4.6-11.8,10.9h5.9a5.9,5.9,0,0,1,6-5.7,6,6,0,0,1,6,5.7h5.7C71.5,13.5,66.6,8.9,60,8.9" transform="translate(0 -0.1)" fill="#fff200"/>
    <path d="M65.8,22.7l-.3.8h-.1a6.1,6.1,0,0,1-11.1-1h-6a10.8,10.8,0,0,0,10.8,9.4,11.4,11.4,0,0,0,7-2.4v2.5a13.6,13.6,0,0,1-.2,2.4,6,6,0,0,1-11.7-.1H48.3c.8,5.8,5.4,9.9,11.7,9.9s10.8-3.9,11.6-9.6h.1v-.2h0c0-.4.1-1.4.1-3.2V22.7h-6" transform="translate(0 -0.1)" fill="#fff200"/>
  </g>
  <path d="M86.5,8.2A9.3,9.3,0,0,0,81,10V.6H75.1V31.3H81V18a4.3,4.3,0,0,1,4.5-4.6A4.6,4.6,0,0,1,90.1,18V31.3H96V17.7c0-.4-.1-.8-.1-1.1a9.6,9.6,0,0,0-9.4-8.4" transform="translate(0 -0.1)" fill="#fff200"/>
  <path d="M108.6,26a4.1,4.1,0,0,1-3.1-.8,4.1,4.1,0,0,1-.9-3V12.6h3.8V7.4h-3.8V2.3H98.9V22.2a9.7,9.7,0,0,0,2.8,7.3,8.4,8.4,0,0,0,5.7,2h2.3V25.9h-1.1" transform="translate(0 -0.1)" fill="#fff200"/>
  <path d="M113.5,28.8a2.8,2.8,0,1,1,5.5,0,2.6,2.6,0,0,1-2.7,2.7A2.6,2.6,0,0,1,113.5,28.8Zm5,0a2.1,2.1,0,0,0-2.2-2.3,2.2,2.2,0,0,0-2.3,2.3,2.1,2.1,0,0,0,2.3,2.2A2.1,2.1,0,0,0,118.5,28.8Zm-3.4-1.6h1.3a1,1,0,0,1,1.1,1,.8.8,0,0,1-.6.9l.7,1.2h-.7l-.7-1.1h-.4v1.1h-.7Zm1.3,1.5a.5.5,0,0,0,0-1h-.6v1Z" transform="translate(0 -0.1)" fill="#fff200"/>
</svg>